PathFileType	4	(X/Y/Z)	0_coords_data.trc
DataRate	CameraRate	NumFrames	NumMarkers	Units	OrigDataRate	OrigDataStartFrame	OrigNumFrames
30.0	30.0	9	21	m	30.0	41	71
Frame#	Time	THUMB_TIP	THUMB_IP	THUMB_MCP	THUMB_CMC	INDEX_TIP	INDEX_DIP	INDEX_PIP	INDEX_MCP	MIDDLE_TIP	MIDDLE_DIP	MIDDLE_PIP	MIDDLE_MCP	RING_TIP	RING_DIP	RING_PIP	RING_MCP	PINKY_TIP	PINKY_DIP	PINKY_PIP	PINKY_MCP	WRIST
X1	Y1	Z1	X2	Y2	Z2	X3	Y3	Z3	X4	Y4	Z4	X5	Y5	Z5	X6	Y6	Z6	X7	Y7	Z7	X8	Y8	Z8	X9	Y9	Z9	X10	Y10	Z10	X11	Y11	Z11	X12	Y12	Z12	X13	Y13	Z13	X14	Y14	Z14	X15	Y15	Z15	X16	Y16	Z16	X17	Y17	Z17	X18	Y18	Z18	X19	Y19	Z19	X20	Y20	Z20	X21	Y21	Z21
39	1.3333333333333275	0.47651641634035646	-0.032991110217658215	-0.171546141308351	0.4828944130274293	-0.035621806012496426	-0.14962809856054365	0.4698661940471288	-0.03197726771468279	-0.12159592328288982	0.47290558814071615	-0.03182819971136175	-0.07709165537211238	0.5670564581085398	0.005489001522160586	-0.18313768536731906	0.5551842872565022	0.0029837016363917224	-0.1696924247992827	0.5396756421063853	-0.0029962311572055977	-0.1508315615530837	0.512342347799129	-0.008341186043691051	-0.11861419708026644	0.6000421018340497	0.02953417887341847	-0.1412382346715752	0.585923227050401	0.021335496055075343	-0.13339993288561064	0.562584710740256	0.009419393616007299	-0.12064337735119107	0.5242929222950334	-0.0012745117539024742	-0.10025889191236437	0.6104264753305422	0.026505294146283775	-0.09631134911249428	0.5942154420083919	0.01948556473063856	-0.09271610258975582	0.5716751166963254	0.009799029460904385	-0.08844003567091441	0.5339829687968335	-0.003125629430049237	-0.08158613070547194	0.6047553736515091	-0.0031294451772873044	-0.04150218342445505	0.5880220183653577	-0.0033930964757841187	-0.04509736198194353	0.5677817688401696	-0.003442165097029992	-0.05067785572609684	0.5334455319750981	-0.005630483627707683	-0.06149994198309927	0.4622830810018609	-0.023011742144276925	-0.051989820119430985
40	1.3666666666666607	0.4808228094215319	-0.03620730294282337	-0.1707634967647001	0.48599314618724054	-0.03787290396760945	-0.14843653120832867	0.47144406248491644	-0.033555050583673696	-0.12126116910259765	0.47339273376700064	-0.032284022636286935	-0.07671369815091128	0.5704968294086633	0.0048610955946361	-0.18031250268178933	0.5581161409440275	0.002104558140590962	-0.16738501048855703	0.5417653068701586	-0.003762895703287694	-0.14921269518536134	0.513016284803945	-0.00876027736510443	-0.11819405561553953	0.6019095217591284	0.027853214229794254	-0.13906176964660316	0.5875477556556863	0.01976159467184635	-0.1315607452286014	0.5637182035372384	0.008296196296275982	-0.1193089438947712	0.5247542925246061	-0.0014639144766803724	-0.09974617831064964	0.6114042016277019	0.02456410192687497	-0.09557030314196197	0.5951138599027154	0.017708230088447463	-0.09201758758647183	0.5723467014943651	0.008550579800184588	-0.08777802178241079	0.5341949308251743	-0.002966900292082575	-0.08095813313744649	0.6050069760115295	-0.0037457146468408142	-0.04143636535880607	0.5882515024039657	-0.0038441329219243148	-0.04493556784356745	0.5679583455413857	-0.0036664569647976153	-0.0503177825183066	0.5334803974730314	-0.005389363245862033	-0.06076699980681888	0.4622830810018609	-0.023011742144276925	-0.051989820119430985
41	1.3999999999999937	0.48590938610457546	-0.03991004526733799	-0.16954436356864505	0.48952303054792257	-0.040360934446351915	-0.1468565194051879	0.4732729805640786	-0.03542015053417824	-0.12077310456249946	0.47397653272791707	-0.03278131359169256	-0.07624859946762247	0.5737888272769687	0.004443141654805638	-0.17729338388340976	0.5608667307376803	0.0014697309545841364	-0.16495732901010746	0.5436333773709748	-0.004282315246119994	-0.1475810426046863	0.5134476333514604	-0.009003685448270238	-0.117913457340587	0.603534524950307	0.02630894262830341	-0.1370590628993914	0.588897305065927	0.01840929783901346	-0.1298933524489651	0.564550262172263	0.007507171372257093	-0.11815560603677244	0.5249792508427478	-0.0013623030617407883	-0.09940419524654037	0.6120091192302826	0.023369237108003538	-0.09507132615760139	0.5956547690929136	0.016648530109853787	-0.0915546048110395	0.5726953105111682	0.007987302328015033	-0.08730885706250041	0.5342211459301052	-0.0024079274123426364	-0.08049719849542109	0.6051981772758878	-0.0034030723536079277	-0.04188340108495603	0.5884023225997068	-0.0034135863767333907	-0.04518478793776992	0.5680314103051672	-0.003097034295116985	-0.05025802616081837	0.5333891479176674	-0.004741944495338268	-0.06016213531352993	0.462283081001861	-0.023011742144276925	-0.051989820119430985
42	1.4333333333333271	0.4914661947213461	-0.043575853036001866	-0.16787153062289117	0.493236832879662	-0.04271463318806079	-0.14497779477908823	0.4752313642645427	-0.03733424068385638	-0.12016500621249104	0.4745931756926558	-0.03323890454315992	-0.07574979556071754	0.5767160012515415	0.004321393963514719	-0.17421688028532822	0.5632272433622598	0.0012118531385544307	-0.16253851710968392	0.5450839172025258	-0.0043420294840110785	-0.14604658160543588	0.5134927081858278	-0.008845587095917873	-0.1178446388408046	0.6046931619352588	0.025084814617802653	-0.13552777280469425	0.589775754447447	0.017461821655351817	-0.12864584486719005	0.5649320894567792	0.0072261465979019945	-0.11735723042830604	0.5248623124134171	-0.0007753312505864862	-0.0992868889557329	0.6121709351092673	0.02300285565889726	-0.09511871899963076	0.5957778245058838	0.016395238619819175	-0.09156832158383099	0.5726744951804829	0.008172826828697355	-0.08723149124137014	0.5340049192179012	-0.0013564061425710427	-0.0802616671508043	0.605319802454497	-0.0020794773691008572	-0.04297079019982941	0.5884642358452185	-0.002102403333527403	-0.04595229127820083	0.5679855777935158	-0.0017733268350155207	-0.050570547665579335	0.5331543275971604	-0.0036759555329743954	-0.059738288106745696	0.462283081001861	-0.023011742144276925	-0.051989820119430985
43	1.4666666666666603	0.49726069708351894	-0.04673702067671104	-0.16576722970778401	0.49699691883008257	-0.04462114379144544	-0.14288812382404342	0.47724949449882215	-0.03911237223066011	-0.11946777651295026	0.47524511643923784	-0.033577354227734224	-0.07524972539916253	0.5791913346155502	0.00458866917669265	-0.17109727041641715	0.5651295787699621	0.0014152863863201581	-0.1601338464893387	0.5460812488704745	-0.0038969931313255213	-0.14461126141575348	0.5131196864591653	-0.008187751820677214	-0.1179886979164374	0.6053796878972824	0.024188225883315928	-0.13446188192502267	0.5901703423968454	0.0169349402578709	-0.12782368510027808	0.5648627739698904	0.007461188512690287	-0.11690651705239657	0.5243908006607946	0.0003250673948104188	-0.0993781665065297	0.611956409690038	0.02324679339489366	-0.09569356530717316	0.5955365627671244	0.016761706547820943	-0.09204222642752741	0.5723232945139569	0.00895258114772357	-0.08753204721910957	0.533539362605322	0.00016075751949118366	-0.08023606908068082	0.605358245514136	-8.793307657262162e-05	-0.04477807743933171	0.5884312395973019	-0.00017971113948012096	-0.0473213130710865	0.5678270040004562	9.167853538893933e-05	-0.05134671269274543	0.5327686220515578	-0.002225263833750657	-0.059496871230053316	0.4622830810018609	-0.023011742144276925	-0.051989820119430985
44	1.4999999999999936	0.5030890751694874	-0.04913011029453751	-0.1632993843760957	0.5007088228715773	-0.04595567999867123	-0.14066628049494456	0.4793013175473029	-0.04061779153034284	-0.1187107421847402	0.47592833000966406	-0.03378601331309905	-0.07475804304735706	0.5812150654342083	0.005071939989739982	-0.1679342840814978	0.5665801654667775	0.0019526167023150576	-0.1577318566658374	0.5466358658328448	-0.00299737035337333	-0.14324971686329308	0.5123613664748139	-0.007024709504919513	-0.1182962536344192	0.6056606932341825	0.023442635518296284	-0.13378438350596172	0.5901390661885036	0.016693388568647216	-0.12734025753981998	0.5643756735327292	0.008145876417516074	-0.11672907547132949	0.5235705074582097	0.0019301552358546026	-0.09962787221475339	0.6114722564350691	0.02383594486102092	-0.0965766667063021	0.5949967744069079	0.01757806113737803	-0.09278227831802333	0.571671218211398	0.010249915128791587	-0.08804976490050886	0.5328167438934526	0.00210509130680836	-0.08038735637675032	0.6052600302277893	0.00228304334296614	-0.047167688747203285	0.5882610377262714	0.002152909905822842	-0.049172013875986464	0.5675286048609288	0.002360408534168301	-0.0524788538786623	0.5322479787962574	-0.0005041705977590905	-0.05940381322018634	0.4622830810018609	-0.023011742144276925	-0.051989820119430985
45	1.5333333333333266	0.508873636076699	-0.05059130926352784	-0.16057401818838768	0.5043759422724298	-0.04662786264217378	-0.13839155120829927	0.4814340013201508	-0.041810124565958895	-0.11791530289052515	0.47663227895402427	-0.03386173831804551	-0.07428438932717407	0.5828431057589081	0.005376679284161856	-0.16463937363442	0.5676047863764676	0.002534231972780243	-0.15527379219594212	0.546755380225965	-0.0018093179671501147	-0.14191543638054627	0.5112098640342163	-0.005343828274366413	-0.11872794816922172	0.6055725362937656	0.022578630793346988	-0.13338627829163513	0.5897053143750747	0.016526241065634828	-0.12709343734601292	0.5634724861377158	0.009168377093650593	-0.11674403589283666	0.5223676892691538	0.004054314408755699	-0.09999918718497369	0.6107896001232964	0.024512319296798535	-0.09759037807509635	0.5942018363885858	0.018661121928700508	-0.09363948151342988	0.5707179193781771	0.012015243664605268	-0.08868792388506036	0.5318149476789946	0.004483013831885652	-0.08065392483603762	0.6049335440847485	0.004834439405025481	-0.049994870123219404	0.5878702810792178	0.004762751161808798	-0.051351305304077666	0.5670189632281946	0.005002044211373624	-0.0537961573879539	0.5315633855911313	0.0015170230053777045	-0.0594211100647265	0.4622830810018609	-0.023011742144276925	-0.051989820119430985
46	1.5666666666666598	0.5143381724252111	-0.05103169464005808	-0.15774054491580325	0.507785454842912	-0.046575383736325304	-0.13617197552847704	0.4834630921373688	-0.04260249620999901	-0.11715990470167975	0.47730721527354525	-0.03380525319178629	-0.07386321088660946	0.58372838563949	0.005806820435969473	-0.16153828606447795	0.5679351957159204	0.003392436657407516	-0.1530091651831751	0.5462846022530613	-0.00024782559409497473	-0.14076130306579787	0.5096435557416441	-0.0032324637981167026	-0.11926335573729085	0.6049538452668038	0.02179087784748368	-0.13330795991995342	0.5887481696365009	0.016584621341000805	-0.12712160634501868	0.5620989583979983	0.010565956606537918	-0.11697248001908273	0.5207681774861773	0.006586382523865675	-0.1004777093222956	0.6097973902507754	0.02537354273225023	-0.09880887424598123	0.5930756234688757	0.02005300976870994	-0.09467675073915877	0.5694295827171478	0.01421390776216891	-0.08948544805824704	0.5305166392341617	0.007177854140741902	-0.08105943993302289	0.6043273931758336	0.0074794528226939105	-0.05320632367912931	0.5872212933149711	0.00755357736416129	-0.05381939227443283	0.5662834414713777	0.007914666377448976	-0.055332003890219306	0.5307117102529602	0.0037515549648496904	-0.05959860587434612	0.4622830810018608	-0.023011742144276925	-0.051989820119430985
47	1.599999999999993	0.5190989668257948	-0.05041885260546819	-0.15511695255386077	0.5106977784134911	-0.0458050276281291	-0.13423316333017205	0.48525502644768226	-0.042931898694301585	-0.11653481587805287	0.4779161256032588	-0.03359599171149885	-0.07353631154122536	0.5837168303244953	0.006482608529664535	-0.1589298750197401	0.5674615182953486	0.004590075430838336	-0.15117209509859447	0.5451779758160062	0.001662816074636586	-0.13990778330280013	0.5076937760147932	-0.0007959880685581844	-0.11984475408365819	0.6036876368166613	0.021203840612753155	-0.13366446243190855	0.587199385892981	0.016923636140696918	-0.12751487454692445	0.5602407462347111	0.012283249653992079	-0.11745962163963425	0.5187949866660901	0.009379525698017033	-0.10102900016728678	0.6084489753431994	0.026438705796462014	-0.10027738913082979	0.5915980488163456	0.021730861725068218	-0.09593199163623634	0.5678229286784017	0.016721277069283946	-0.09047051720135424	0.5289494791341405	0.010017530904531724	-0.08160284885570895	0.6034362867761387	0.010087150295723046	-0.0567850009311337	0.5863228148442142	0.01038418219130588	-0.05658288589399102	0.5653408463235413	0.010934091725730677	-0.0570992341305922	0.5297184523585732	0.006065392602092046	-0.05996703259772268	0.4622830810018608	-0.023011742144276925	-0.051989820119430985
